<?xml version="1.0" encoding="utf-8"?>
<!-- Generator: Adobe Illustrator 16.0.4, SVG Export Plug-In . SVG Version: 6.00 Build 0)  -->
<!DOCTYPE svg PUBLIC "-//W3C//DTD SVG 1.1//EN" "http://www.w3.org/Graphics/SVG/1.1/DTD/svg11.dtd">
<svg version="1.1" id="Layer_1" xmlns="http://www.w3.org/2000/svg" xmlns:xlink="http://www.w3.org/1999/xlink" x="0px" y="0px"
	 width="292.286px" height="64.133px" viewBox="0 0 292.286 64.133" enable-background="new 0 0 292.286 64.133"
	 xml:space="preserve">
<g>
	<g>
		
			<image overflow="visible" enable-background="new    " width="904" height="517" xlink:href="ED8E557AFE721D9F.png"  transform="matrix(0.2387 0 0 0.2368 -20.7339 -28.1729)">
		</image>
	</g>
	<g>
		<path fill="#E31F26" d="M64.057,50.73c0,2.355-1.911,4.267-4.268,4.267H23.988c-2.356,0-4.267-1.908-4.267-4.267V14.931
			c0-2.356,1.911-4.264,4.267-4.264h35.801c2.356,0,4.268,1.908,4.268,4.264V50.73z"/>
		<g>
			<g>
				<path fill="#FFFFFF" d="M35.138,20.866c0,0-0.791,0.088-0.988-0.761c0,0-0.549-4.126-2.755-4.217c0,0-3.319,0.11-2.176,2.287
					l1.285,1.958c0,0,0.746,0.999-0.926,1.133l-3.832,0.216c0,0-1.905-0.037-2.436,1.568c0,0-0.891,2.106,0.16,2.733
					c0,0,0.687,0.357,1.343-0.24c0,0,0.778-0.717,2.291-0.878c0,0,4.284-0.599,9.804-0.118c0,0,0.88,0.221,1.237-0.679
					c0,0,0.359-0.968,0.804-1.881c0,0,0.688-1.434-0.642-1.242C38.306,20.744,37.5,20.878,35.138,20.866z"/>
				<path fill="#FFFFFF" d="M30.875,29.245c1.87,0.051,4.26,0.776,4.26,0.776c1.388,0.147,1.419-1.123,1.419-1.123
					c0.046-1.071,0.658-2.097,0.658-2.097c0.479-0.741-0.479-0.646-0.479-0.646c-5.033,0.084-9.258,0.396-9.258,0.396
					c-3.266,0.413-2.485,2.384-2.485,2.384s0.49,1.496,1.431,1.463c0,0,1.024,0,2.308-0.729
					C28.73,29.672,29.638,29.211,30.875,29.245z"/>
				<path fill="#FFFFFF" d="M29.871,34.607c3.19-0.178,5.198,0.553,5.198,0.553c1.321,0.473,1.85-0.898,1.85-0.898
					c0.195-0.394,0.746-1.5,0.746-1.5c0.678-1.005-0.551-1.022-0.551-1.022c-6.894-0.38-10.712,0.545-10.712,0.545
					c-1.385,0.276-1.286,1.04-1.286,1.04s-0.196,0.607,0.759,1.601c0,0,0.447,0.66,1.736,0.146
					C27.611,35.07,28.695,34.676,29.871,34.607z"/>
				<path fill="#FFFFFF" d="M38.123,43.575c0,0-0.063-3.386,0.097-4.429c0,0,0.4-2.131-1.601-2.813c0,0-0.839-0.36-1.195-0.033
					c0,0-0.633,0.591-1.146,0.623c0,0-3.639,0.095-4.742,0.308c-0.778,0.146-3.615,0.086-3.615,0.086
					c-0.659,0.09-0.627,0.449-0.627,0.449c-0.151,0.565,0.028,1.557,0.028,1.557c0.539,1.854,0.24,5.529,0.24,5.529
					c-0.18,3.496,2.957,3.02,2.957,3.02c1.882-0.303,5.619-0.211,5.619-0.211c0.562-0.012,1.071-0.002,1.347,0.234
					c0.384,0.332,0.747,0.453,0.747,0.453c1.583,0.268,1.763-1.019,1.763-1.019S38.134,45.195,38.123,43.575z M33.958,44.37
					c-1.284,0.182-4.125,0.147-4.125,0.147c-0.988,0.062-1.013-0.807-1.013-0.807l-0.24-2.688c0.026-0.776,0.775-0.655,0.775-0.655
					c1.016,0.146,3.884,0.028,3.884,0.028c0.808-0.149,0.986,0.328,0.986,0.328c0.243,0.564,0.361,2.93,0.361,2.93
					C34.733,44.461,33.958,44.37,33.958,44.37z"/>
			</g>
			<g>
				<path fill="#FFFFFF" d="M40.137,46.971c0.534,1.139,2.059,0.42,2.059,0.42c3.23-0.84,5.056-0.629,5.056-0.629
					c0.597-0.031,0.685,0.508,0.685,0.508l0.331,3.229c0,0-0.06,1.437,0.895,1.226l0.718-0.148c1.165-0.24,1.046-1.434,1.046-1.434
					l0.03-2.843c0.03-1.075,1.015-0.838,1.015-0.838s3.975,0.181,4.993,0.779c0,0,1.163,0.954,2.09-0.388
					c0,0,0.961-1.317,1.377-1.914c1.187-1.698-0.717-1.646-0.717-1.646c-4.394,0.81-8.52,0.121-8.52,0.121l-0.177-1.229
					c3.347-0.324,5.349,0,5.349,0c2.211,0.271,2.09-1.401,2.09-1.401c-0.086-0.957-0.176-2.033-0.176-2.033
					c0.03-2.748,0.328-3.705,0.328-3.705c0.182-1.823-1.553-2.001-1.553-2.001c-11.625,0.329-14.703,0.09-14.703,0.09
					c-1.764-0.148-0.897,1.584-0.897,1.584c0.509,0.836,0.718,4.184,0.718,4.184c0.119,0.748-0.209,1.312-0.209,1.312
					c-0.39,0.777,1.076,2.094,1.076,2.094c0.508,0.57,1.403-0.235,1.403-0.235c0.748-0.359,2.911-0.115,2.911-0.115
					c0.529-0.099,0.615,0.321,0.615,0.321l0.062,0.658c0.082,0.562-0.411,0.515-0.411,0.515l-6.73,0.125
					c0,0-1.555-0.144-1.323,0.896C39.564,44.469,39.754,46.159,40.137,46.971z M45.486,35.197l8.639,0.266
					c0.421,0.061,0.447,0.391,0.447,0.391l0.03,0.445c0.031,0.57-0.477,0.42-0.477,0.42l-8.697-0.025
					c-0.451-0.032-0.417-0.45-0.417-0.45l-0.033-0.57C44.948,35.107,45.486,35.197,45.486,35.197z M45.249,39.68
					c-0.601-0.031-0.329-0.809-0.329-0.809s-0.03-0.27,0.658-0.299l8.727-0.031c0.566-0.059,0.566,0.418,0.566,0.418l0.032,0.721
					c0.057,0.299-0.27,0.299-0.27,0.299C53.945,40.096,45.249,39.68,45.249,39.68z"/>
				<path fill="#FFFFFF" d="M60.207,23.405c-1-1.581-2.213-0.896-2.213-0.896c-0.431,0.392-1.271,0.312-1.271,0.312
					c-0.299,0.016-3.954-0.285-3.954-0.285c-0.261,0-0.261-0.241-0.261-0.241V20.76c0-0.757,0.44-0.637,0.44-0.637
					c1.236-0.042,2.592,0.399,2.592,0.399c1.272,0.676,1.791-0.321,1.791-0.321c0.121-0.396,0.759-1.792,0.759-1.792
					c1.115-1.873-1.754-1.553-1.754-1.553c-0.778,0.02-2.949,0.12-2.949,0.12c-4.196,0.527-9.009-0.08-9.009-0.08
					c-1.644-0.327-2.667,0.397-2.667,0.397s-2.282,1.192-1.32,2.755c0.581,0.951,0.981,0.452,0.981,0.452
					c1.016-0.875,2.97-0.895,2.97-0.895c0.634-0.021,0.516,0.497,0.516,0.497c0.083,0.438-0.101,2.351-0.101,2.351
					c-3.925-0.557-4.561,0.878-4.561,0.878c-0.717,1.055-0.419,2.509-0.419,2.509c0.277,1.036,0.298,1.952,0.298,1.952
					c0.021,0.419-0.199,1.556-0.199,1.556c-0.058,1.274,0.478,1.873,0.478,1.873c0.938,1.354,3.069,0.656,3.069,0.656
					c3.449-1.016,11.403-0.583,11.403-0.583c1.971,0.075,3.705,0.808,3.705,0.808c1.599,0.554,1.375-0.82,1.375-0.82
					c-0.031-0.583,0.209-4.336,0.209-4.336c0.015-1,0.21-1.732,0.21-1.732C60.672,24.152,60.207,23.405,60.207,23.405z M45.1,29.066
					l-2.032,0.123c0,0-0.211,0.056-0.239-0.479c0,0-0.212-2.181-0.028-2.751c0,0,0.056-0.476,0.595-0.505h1.945
					c0,0,0.088,2.627,0.175,3.077C45.515,28.531,45.546,29.066,45.1,29.066z M47.308,29.277c-0.177-1.195-0.147-3.914-0.147-3.914
					c0.445-0.062,3.227-0.092,3.227-0.092l0.149,3.918L47.308,29.277z M50.06,22.553c-0.419,0.062-2.899-0.062-2.899-0.062v-2.748
					c0.626-0.148,2.631-0.178,2.631-0.178c0.627,0,0.687,0.566,0.687,0.566l0.058,1.941C50.539,22.575,50.06,22.553,50.06,22.553z
					 M56.436,28.989l-3.767,0.118c0-0.239,0-3.963,0-3.963s3.19-0.103,3.688,0c0,0,0.34,0,0.376,0.338l0.121,2.927
					C56.854,29.128,56.436,28.989,56.436,28.989z"/>
			</g>
		</g>
	</g>
	<g>
		
			<image overflow="visible" enable-background="new    " width="813" height="408" xlink:href="ED8E557AFE721D9D.png"  transform="matrix(0.2391 0 0 0.2388 118.5566 -3.6387)">
		</image>
	</g>
	<g>
		<path d="M84.688,12.753c0-0.527,0.317-0.844,0.845-0.844h5.437c0.633,0,0.897,0.317,0.897,0.844V53.29
			c0,0.526-0.264,0.844-0.897,0.844h-5.437c-0.528,0-0.845-0.315-0.845-0.844V36.504h-6.756V53.29c0,0.526-0.316,0.844-0.844,0.844
			h-5.437c-0.633,0-0.897-0.315-0.897-0.844V12.753c0-0.527,0.264-0.844,0.897-0.844h5.437c0.528,0,0.844,0.317,0.844,0.844v16.784
			h6.756V12.753z"/>
		<path d="M97.148,19.509c0-4.961,2.639-7.6,7.6-7.6h5.912c4.961,0,7.6,2.639,7.6,7.6v27.025c0,4.961-2.639,7.6-7.6,7.6h-5.912
			c-4.961,0-7.6-2.639-7.6-7.6V19.509z M109.34,47.325c1.373,0,2.111-0.687,2.111-2.111V20.829c0-1.373-0.739-2.111-2.111-2.111
			h-3.061c-1.373,0-2.111,0.739-2.111,2.111v24.384c0,1.426,0.739,2.111,2.111,2.111L109.34,47.325L109.34,47.325z"/>
		<path d="M152.569,11.909c0.688,0,1.057,0.37,1.057,1.056v40.114c0,0.687-0.369,1.055-1.057,1.055h-4.906
			c-0.688,0-1.058-0.368-1.058-1.055V29.327h-0.37l-5.225,23.856c-0.159,0.633-0.528,0.949-1.161,0.949h-2.586
			c-0.634,0-1.003-0.316-1.161-0.949l-5.225-23.856h-0.371v23.751c0,0.686-0.369,1.055-1.055,1.055h-4.855
			c-0.687,0-1.056-0.369-1.056-1.055V12.965c0-0.686,0.369-1.056,1.056-1.056h6.967c0.633,0,1.003,0.317,1.161,0.95l5.858,26.284
			l5.858-26.284c0.158-0.633,0.526-0.95,1.161-0.95H152.569z"/>
	</g>
	<g>
		<g>
			<path d="M163.741,47.605v6.562h-1.547V35.188h1.547v6.101c0,2.687-0.027,4.394-0.027,4.42h0.056l3.362-3.524l6.75-6.994h1.927
				l-7.269,7.563l8.082,11.442l-1.846-0.026l-7.4-10.305L163.741,47.605z"/>
			<path d="M179.358,35.188h1.545v18.979h-1.545V35.188z"/>
			<path d="M192.482,36.65v17.517h-1.571V36.65h-6.727v-1.465h15.021v1.465H192.482z"/>
			<path d="M218.322,48.907c-1.519,3.524-4.854,5.586-8.839,5.586c-5.479,0-9.732-3.877-9.732-9.869
				c0-6.021,4.201-9.815,9.732-9.815c4.395,0,7.375,2.358,8.566,5.098l-1.518,0.434c-0.625-1.246-2.55-4.039-7.051-4.039
				c-4.771,0-8.162,3.174-8.162,8.324c0,5.232,3.579,8.404,8.107,8.404c3.254,0,6.047-1.707,7.375-4.527L218.322,48.907z"/>
			<path d="M234.752,44.92h-11.334v9.246h-1.545V35.188h1.545v8.242h11.334v-8.242h1.572v18.979h-1.572V44.92z"/>
			<path d="M240.801,35.188h12.474v1.463h-10.928v6.779h8.622v1.49h-8.622v7.783h10.952v1.463h-12.498V35.188z"/>
			<path d="M258.479,37.6h-0.055c0,0.027,0.08,2.17,0.08,4.502v12.064h-1.545V35.188h1.572l11.959,16.433h0.025
				c0-0.027-0.055-2.17-0.055-4.42V35.188h1.545v18.979h-1.571L258.479,37.6z"/>
		</g>
	</g>
</g>
</svg>
